<?xml version="1.0" encoding="utf-8"?>
<!-- Generator: Adobe Illustrator 24.0.0, SVG Export Plug-In . SVG Version: 6.00 Build 0)  -->
<svg version="1.1" id="Layer_1" xmlns="http://www.w3.org/2000/svg" xmlns:xlink="http://www.w3.org/1999/xlink" x="0px" y="0px"
	 viewBox="0 0 100 100" style="enable-background:new 0 0 100 100;" xml:space="preserve">
<style type="text/css">
	.st0{fill:#7F7F80;}
	.st1{fill:#010202;}
	.st2{fill:none;stroke:#010202;stroke-width:4;stroke-linecap:round;stroke-miterlimit:10;}
	.st3{fill:none;stroke:#7F7F80;stroke-width:4;stroke-linecap:round;stroke-miterlimit:10;}
	.st4{fill:none;stroke:#010202;stroke-width:4;stroke-miterlimit:10;}
</style>
<g>
	<path class="st0" d="M-132-77.22l-25.43-25.43c-0.62-0.62-1.63-0.62-2.24,0l-0.99,0.99l-3.81-3.81
		c6.3-6.83,10.15-15.94,10.15-25.96c0-21.15-17.15-38.3-38.3-38.3c-21.15,0-38.3,17.15-38.3,38.3c0,21.15,17.15,38.3,38.3,38.3
		c9.6,0,18.37-3.54,25.1-9.38l3.86,3.86l-0.99,0.99c-0.62,0.62-0.62,1.63,0,2.24L-139.23-70c0.62,0.62,1.63,0.62,2.24,0l4.98-4.98
		C-131.39-75.6-131.39-76.61-132-77.22z M-192.62-98.44c-18.23,0-33-14.77-33-33s14.77-33,33-33s33,14.77,33,33
		S-174.4-98.44-192.62-98.44z"/>
</g>
<g>
	<path class="st1" d="M-132-177.22l-25.43-25.43c-0.62-0.62-1.63-0.62-2.24,0l-0.99,0.99l-3.81-3.81
		c6.3-6.83,10.15-15.94,10.15-25.96c0-21.15-17.15-38.3-38.3-38.3c-21.15,0-38.3,17.15-38.3,38.3c0,21.15,17.15,38.3,38.3,38.3
		c9.6,0,18.37-3.54,25.1-9.38l3.86,3.86l-0.99,0.99c-0.62,0.62-0.62,1.63,0,2.24l25.43,25.43c0.62,0.62,1.63,0.62,2.24,0l4.98-4.98
		C-131.39-175.6-131.39-176.61-132-177.22z M-192.62-198.44c-18.23,0-33-14.77-33-33s14.77-33,33-33s33,14.77,33,33
		S-174.4-198.44-192.62-198.44z"/>
</g>
<g>
	<path class="st1" d="M-132-177.22l-25.43-25.43c-0.62-0.62-1.63-0.62-2.24,0l-0.99,0.99l-3.81-3.81
		c6.3-6.83,10.15-15.94,10.15-25.96c0-21.15-17.15-38.3-38.3-38.3c-21.15,0-38.3,17.15-38.3,38.3c0,21.15,17.15,38.3,38.3,38.3
		c9.6,0,18.37-3.54,25.1-9.38l3.86,3.86l-0.99,0.99c-0.62,0.62-0.62,1.63,0,2.24l25.43,25.43c0.62,0.62,1.63,0.62,2.24,0l4.98-4.98
		C-131.39-175.6-131.39-176.61-132-177.22z M-192.62-198.44c-18.23,0-33-14.77-33-33s14.77-33,33-33s33,14.77,33,33
		S-174.4-198.44-192.62-198.44z"/>
</g>
<polygon class="st2" points="19.23,-263.59 33.69,-234.29 66.02,-229.59 42.62,-206.79 48.15,-174.59 19.23,-189.79 -9.69,-174.59 
	-4.17,-206.79 -27.56,-229.59 4.77,-234.29 "/>
<polygon class="st3" points="19.23,-164.59 33.69,-135.29 66.02,-130.59 42.62,-107.79 48.15,-75.59 19.23,-90.79 -9.69,-75.59 
	-4.17,-107.79 -27.56,-130.59 4.77,-135.29 "/>
<path class="st4" d="M88.32,66.84c-0.61-1.3-1.71-2.37-3.16-2.9L61.1,55.07c-0.22-0.08-0.45-0.12-0.68-0.17v-5.16
	c5.09-3.3,8.48-9.02,8.48-15.51V21.9c0-10.17-8.32-18.49-18.49-18.49S31.91,11.73,31.91,21.9v12.33c0,6.48,3.39,12.2,8.48,15.51
	v5.16c-0.23,0.05-0.45,0.09-0.68,0.17l-24.06,8.86c-1.45,0.53-2.54,1.6-3.16,2.9c-0.87,1.25-1.38,2.75-1.38,4.38v18.49
	c0,4.24,3.47,7.7,7.7,7.7H82c4.24,0,7.7-3.47,7.7-7.7V71.21C89.7,69.59,89.19,68.09,88.32,66.84z"/>
<path class="st3" d="M-42.47-102.14c-0.63-1.34-1.77-2.45-3.26-3l-24.83-9.15c-0.23-0.08-0.46-0.13-0.7-0.18v-5.32
	c5.25-3.41,8.75-9.31,8.75-16v-12.72c0-10.5-8.59-19.08-19.08-19.08s-19.08,8.59-19.08,19.08v12.72c0,6.69,3.5,12.59,8.75,16v5.32
	c-0.23,0.05-0.47,0.09-0.7,0.18l-24.83,9.15c-1.49,0.55-2.62,1.66-3.26,3c-0.89,1.29-1.43,2.84-1.43,4.52v19.08
	c0,4.37,3.58,7.95,7.95,7.95H-49c4.37,0,7.95-3.58,7.95-7.95v-19.08C-41.04-99.3-41.58-100.85-42.47-102.14z"/>
</svg>
