<?xml version="1.0" encoding="utf-8"?>
<!-- Generator: Adobe Illustrator 24.0.0, SVG Export Plug-In . SVG Version: 6.00 Build 0)  -->
<svg version="1.1" id="Layer_1" xmlns="http://www.w3.org/2000/svg" xmlns:xlink="http://www.w3.org/1999/xlink" x="0px" y="0px"
	 viewBox="0 0 100 100" style="enable-background:new 0 0 100 100;" xml:space="preserve">
<style type="text/css">
	.st0{fill:#B19C5E;}
	.st1{fill:#010202;}
	.st2{fill:none;stroke:#7F7F80;stroke-width:4;stroke-linecap:round;stroke-miterlimit:10;}
	.st3{fill:none;stroke:#010202;stroke-width:4;stroke-miterlimit:10;}
	.st4{fill:none;stroke:#B19C5E;stroke-width:5;stroke-miterlimit:10;}
</style>
<g>
	<path class="st0" d="M257.58-97.42l-25.43-25.43c-0.62-0.62-1.63-0.62-2.24,0l-0.99,0.99l-3.81-3.81
		c6.3-6.83,10.15-15.94,10.15-25.96c0-21.15-17.15-38.3-38.3-38.3s-38.3,17.15-38.3,38.3s17.15,38.3,38.3,38.3
		c9.6,0,18.37-3.54,25.1-9.38l3.86,3.86l-0.99,0.99c-0.62,0.62-0.62,1.63,0,2.24l25.42,25.42c0.62,0.62,1.63,0.62,2.24,0l4.98-4.98
		C258.19-95.8,258.19-96.81,257.58-97.42z M196.96-118.64c-18.23,0-33-14.77-33-33s14.77-33,33-33s33,14.77,33,33
		S215.18-118.64,196.96-118.64z"/>
</g>
<g>
	<path class="st1" d="M-132-177.22l-25.43-25.43c-0.62-0.62-1.63-0.62-2.24,0l-0.99,0.99l-3.81-3.81
		c6.3-6.83,10.15-15.94,10.15-25.96c0-21.15-17.15-38.3-38.3-38.3s-38.3,17.15-38.3,38.3s17.15,38.3,38.3,38.3
		c9.6,0,18.37-3.54,25.1-9.38l3.86,3.86l-0.99,0.99c-0.62,0.62-0.62,1.63,0,2.24l25.43,25.43c0.62,0.62,1.63,0.62,2.24,0l4.98-4.98
		C-131.39-175.6-131.39-176.61-132-177.22z M-192.62-198.44c-18.23,0-33-14.77-33-33s14.77-33,33-33s33,14.77,33,33
		S-174.4-198.44-192.62-198.44z"/>
</g>
<g>
	<path class="st1" d="M-132-177.22l-25.43-25.43c-0.62-0.62-1.63-0.62-2.24,0l-0.99,0.99l-3.81-3.81
		c6.3-6.83,10.15-15.94,10.15-25.96c0-21.15-17.15-38.3-38.3-38.3s-38.3,17.15-38.3,38.3s17.15,38.3,38.3,38.3
		c9.6,0,18.37-3.54,25.1-9.38l3.86,3.86l-0.99,0.99c-0.62,0.62-0.62,1.63,0,2.24l25.43,25.43c0.62,0.62,1.63,0.62,2.24,0l4.98-4.98
		C-131.39-175.6-131.39-176.61-132-177.22z M-192.62-198.44c-18.23,0-33-14.77-33-33s14.77-33,33-33s33,14.77,33,33
		S-174.4-198.44-192.62-198.44z"/>
</g>
<polygon class="st2" points="19.23,-164.59 33.69,-135.29 66.02,-130.59 42.62,-107.79 48.15,-75.59 19.23,-90.79 -9.69,-75.59 
	-4.17,-107.79 -27.56,-130.59 4.77,-135.29 "/>
<path class="st3" d="M-54.68-262.16c-0.61-1.3-1.71-2.37-3.16-2.9l-24.06-8.86c-0.22-0.08-0.45-0.12-0.68-0.17v-5.16
	c5.09-3.3,8.48-9.02,8.48-15.51v-12.33c0-10.17-8.32-18.49-18.49-18.49s-18.49,8.32-18.49,18.49v12.33c0,6.48,3.39,12.2,8.48,15.51
	v5.16c-0.23,0.05-0.45,0.09-0.68,0.17l-24.06,8.86c-1.45,0.53-2.54,1.6-3.16,2.9c-0.87,1.25-1.38,2.75-1.38,4.38v18.49
	c0,4.24,3.47,7.7,7.7,7.7H-61c4.24,0,7.7-3.47,7.7-7.7v-18.49C-53.3-259.41-53.81-260.91-54.68-262.16z"/>
<path class="st4" d="M87.68,67.11c-0.61-1.29-1.7-2.36-3.14-2.89l-23.92-8.81c-0.22-0.08-0.44-0.13-0.67-0.17v-5.12
	c5.06-3.28,8.43-8.97,8.43-15.41V22.45c0-10.11-8.27-18.38-18.38-18.38s-18.38,8.27-18.38,18.38V34.7c0,6.44,3.37,12.13,8.43,15.41
	v5.12c-0.22,0.05-0.45,0.09-0.67,0.17l-23.92,8.81c-1.44,0.53-2.52,1.6-3.14,2.89c-0.86,1.24-1.38,2.74-1.38,4.35v18.38
	c0,4.21,3.45,7.66,7.66,7.66h62.79c4.21,0,7.66-3.45,7.66-7.66V71.47C89.06,69.85,88.54,68.35,87.68,67.11z"/>
</svg>
