<?xml version="1.0" encoding="utf-8"?>
<!-- Generator: Adobe Illustrator 24.0.0, SVG Export Plug-In . SVG Version: 6.00 Build 0)  -->
<svg version="1.1" id="Layer_1" xmlns="http://www.w3.org/2000/svg" xmlns:xlink="http://www.w3.org/1999/xlink" x="0px" y="0px"
	 viewBox="0 0 100 100" style="enable-background:new 0 0 100 100;" xml:space="preserve">
<style type="text/css">
	.st0{fill:#010202;}
</style>
<g>
	<path class="st0" d="M99.38,92.25L73.95,66.82c-0.62-0.62-1.63-0.62-2.24,0l-0.99,0.99L66.9,64c6.3-6.83,10.15-15.94,10.15-25.96
		c0-21.15-17.15-38.3-38.3-38.3c-21.15,0-38.3,17.15-38.3,38.3c0,21.15,17.15,38.3,38.3,38.3c9.6,0,18.37-3.54,25.1-9.38l3.86,3.86
		l-0.99,0.99c-0.62,0.62-0.62,1.63,0,2.24l25.43,25.43c0.62,0.62,1.63,0.62,2.24,0l4.98-4.98C99.99,93.88,99.99,92.87,99.38,92.25z
		 M38.76,71.03c-18.23,0-33-14.77-33-33s14.77-33,33-33s33,14.77,33,33S56.98,71.03,38.76,71.03z"/>
</g>
</svg>
