<?xml version="1.0" encoding="utf-8"?>
<!-- Generator: Adobe Illustrator 24.0.0, SVG Export Plug-In . SVG Version: 6.00 Build 0)  -->
<svg version="1.1" id="Layer_1" xmlns="http://www.w3.org/2000/svg" xmlns:xlink="http://www.w3.org/1999/xlink" x="0px" y="0px"
	 viewBox="0 0 100 40" style="enable-background:new 0 0 100 40;" xml:space="preserve">
<style type="text/css">
	.st0{fill:#020203;}
</style>
<g>
	<path class="st0" d="M21.75,3.16v23.36h3.61v1.45H14.61v-1.45h3.61V3.16h-3.61V1.72h10.75v1.45H21.75z"/>
	<path class="st0" d="M45.25,14.53l-5.22,13.71h-1.39l-9-25.08h-3.58V1.72H36.6v1.45h-3.22l6.97,19.37h0.07l3.99-10.41L41.2,3.16
		h-3.04V1.72H48.7v1.45h-3.76l6.97,19.37h0.07l7.43-19.37H55.8V1.72h8.62v1.45h-3.25l-9.57,25.08H50.2l-4.88-13.71H45.25z"/>
	<path class="st0" d="M84.81,20.11l-0.25,7.15c-0.58,0.21-1.2,0.39-1.87,0.55c-0.67,0.16-1.35,0.3-2.03,0.42
		c-0.69,0.11-1.36,0.2-2.03,0.26c-0.67,0.06-1.29,0.09-1.87,0.09c-1.84,0-3.5-0.31-4.98-0.94c-1.48-0.63-2.73-1.52-3.76-2.68
		c-1.03-1.16-1.82-2.58-2.37-4.24c-0.55-1.66-0.82-3.53-0.82-5.62c0-2.13,0.29-4.06,0.87-5.78c0.58-1.72,1.4-3.19,2.47-4.42
		c1.07-1.22,2.37-2.16,3.89-2.82c1.52-0.66,3.22-0.98,5.1-0.98c0.53,0,1.09,0.03,1.68,0.08c0.59,0.05,1.19,0.13,1.8,0.23
		c0.61,0.1,1.21,0.23,1.81,0.37c0.6,0.14,1.17,0.31,1.73,0.49l0.22,6.59h-1.26c-0.11-1.31-0.35-2.38-0.71-3.21
		c-0.37-0.83-0.83-1.47-1.38-1.92c-0.55-0.46-1.18-0.77-1.88-0.94c-0.7-0.17-1.44-0.25-2.22-0.25c-0.79,0-1.55,0.07-2.26,0.22
		s-1.37,0.4-1.98,0.76s-1.16,0.84-1.64,1.45c-0.49,0.6-0.9,1.37-1.24,2.29c-0.34,0.93-0.6,2.03-0.79,3.3
		c-0.19,1.27-0.28,2.75-0.28,4.44c0,1.67,0.09,3.13,0.27,4.38c0.18,1.25,0.44,2.32,0.77,3.22c0.33,0.9,0.73,1.65,1.21,2.23
		s1.01,1.05,1.59,1.39c0.58,0.34,1.22,0.58,1.91,0.71c0.69,0.13,1.41,0.2,2.17,0.2c0.92,0,1.76-0.11,2.54-0.32
		c0.78-0.21,1.46-0.58,2.06-1.11c0.6-0.53,1.09-1.25,1.48-2.15s0.66-2.05,0.8-3.45H84.81z"/>
</g>
<g>
	<path class="st0" d="M2.43,36.04h0.41c0.04,0.45,0.13,0.82,0.26,1.11s0.29,0.53,0.48,0.71s0.41,0.3,0.65,0.37s0.5,0.11,0.78,0.11
		c0.33,0,0.61-0.04,0.84-0.12s0.42-0.2,0.57-0.34s0.26-0.32,0.33-0.53s0.1-0.43,0.1-0.68c0-0.3-0.05-0.56-0.15-0.75
		s-0.24-0.37-0.42-0.5s-0.4-0.26-0.65-0.36s-0.53-0.21-0.84-0.32s-0.59-0.22-0.87-0.35s-0.52-0.27-0.73-0.45s-0.38-0.4-0.5-0.66
		s-0.18-0.58-0.18-0.97c0-0.36,0.06-0.7,0.18-1s0.29-0.56,0.52-0.77s0.52-0.38,0.86-0.5s0.74-0.18,1.19-0.18
		c0.18,0,0.37,0.01,0.56,0.03s0.38,0.04,0.57,0.08s0.38,0.08,0.56,0.13s0.36,0.1,0.52,0.16l0.07,2.13H7.11
		C7.07,31.97,7,31.63,6.88,31.36s-0.27-0.47-0.44-0.62s-0.37-0.25-0.58-0.31s-0.43-0.08-0.65-0.08c-0.3,0-0.55,0.04-0.77,0.11
		s-0.4,0.18-0.54,0.31s-0.25,0.3-0.33,0.49s-0.11,0.41-0.11,0.65c0,0.29,0.05,0.53,0.15,0.72s0.25,0.36,0.43,0.5
		s0.41,0.26,0.67,0.37s0.55,0.22,0.86,0.34c0.29,0.11,0.57,0.23,0.84,0.35s0.52,0.28,0.74,0.46s0.39,0.41,0.52,0.69
		s0.2,0.61,0.2,1.01c0,0.39-0.07,0.74-0.2,1.04s-0.33,0.56-0.58,0.77s-0.56,0.37-0.92,0.47s-0.77,0.16-1.23,0.16
		c-0.2,0-0.41-0.01-0.62-0.03s-0.42-0.05-0.63-0.09s-0.41-0.08-0.61-0.13s-0.38-0.11-0.56-0.18L2.43,36.04z"/>
	<path class="st0" d="M15.72,36.04l-0.08,2.32c-0.19,0.07-0.39,0.13-0.61,0.18s-0.44,0.1-0.66,0.13s-0.44,0.07-0.66,0.08
		s-0.42,0.03-0.61,0.03c-0.6,0-1.14-0.1-1.61-0.3s-0.88-0.49-1.22-0.87s-0.59-0.83-0.77-1.37s-0.27-1.15-0.27-1.82
		c0-0.69,0.09-1.32,0.28-1.88s0.46-1.04,0.8-1.43s0.77-0.7,1.26-0.91s1.05-0.32,1.66-0.32c0.17,0,0.35,0.01,0.54,0.03
		s0.39,0.04,0.58,0.08s0.39,0.07,0.59,0.12s0.38,0.1,0.56,0.16l0.07,2.14h-0.41c-0.04-0.43-0.11-0.77-0.23-1.04
		s-0.27-0.48-0.45-0.62s-0.38-0.25-0.61-0.3s-0.47-0.08-0.72-0.08c-0.26,0-0.5,0.02-0.73,0.07s-0.44,0.13-0.64,0.25
		s-0.38,0.27-0.53,0.47s-0.29,0.44-0.4,0.74s-0.19,0.66-0.25,1.07s-0.09,0.89-0.09,1.44c0,0.54,0.03,1.02,0.09,1.42
		s0.14,0.75,0.25,1.05s0.24,0.53,0.39,0.72s0.33,0.34,0.52,0.45s0.4,0.19,0.62,0.23s0.46,0.06,0.7,0.06c0.3,0,0.57-0.03,0.82-0.1
		s0.47-0.19,0.67-0.36s0.35-0.4,0.48-0.7s0.21-0.67,0.26-1.12H15.72z"/>
	<path class="st0" d="M18.09,38.12v-7.58h-1.17v-0.47h3.49v0.47h-1.17v3.39h3.92v-3.39h-1.17v-0.47h3.49v0.47h-1.17v7.58h1.17v0.47
		h-3.49v-0.47h1.17v-3.7h-3.92v3.7h1.17v0.47h-3.49v-0.47H18.09z"/>
	<path class="st0" d="M28.47,38.12v0.47h-2.85v-0.47h1.11l3.05-8.13h0.46l2.86,8.13h1.16v0.47h-3.6v-0.47h1.22l-0.88-2.5h-2.77
		l-0.93,2.5H28.47z M29.64,31.83l-1.24,3.3h2.42l-1.16-3.3H29.64z"/>
	<path class="st0" d="M36.83,30.54v3.57h0.77c0.26,0,0.48-0.01,0.66-0.03s0.32-0.08,0.42-0.17s0.19-0.24,0.24-0.44
		s0.09-0.48,0.12-0.83h0.42v3.53h-0.42c-0.02-0.36-0.05-0.65-0.1-0.86s-0.12-0.37-0.23-0.47s-0.25-0.17-0.42-0.2
		s-0.41-0.04-0.69-0.04h-0.77v3.53h1.23v0.47h-3.54v-0.47h1.17v-7.58h-1.17v-0.47h6.53l0.13,2.47h-0.41
		c-0.05-0.42-0.12-0.76-0.21-1.02s-0.21-0.46-0.37-0.61s-0.36-0.24-0.62-0.29s-0.57-0.08-0.95-0.08H36.83z"/>
	<path class="st0" d="M44.28,30.54v3.57h0.77c0.26,0,0.48-0.01,0.66-0.03s0.32-0.08,0.42-0.17s0.19-0.24,0.24-0.44
		s0.09-0.48,0.12-0.83h0.42v3.53h-0.42c-0.02-0.36-0.05-0.65-0.1-0.86s-0.12-0.37-0.23-0.47s-0.25-0.17-0.42-0.2
		s-0.41-0.04-0.69-0.04h-0.77v3.53h1.23v0.47h-3.54v-0.47h1.17v-7.58h-1.17v-0.47h6.53l0.13,2.47h-0.41
		c-0.05-0.42-0.12-0.76-0.21-1.02s-0.21-0.46-0.37-0.61s-0.36-0.24-0.62-0.29s-0.57-0.08-0.95-0.08H44.28z"/>
	<path class="st0" d="M50.59,38.12v-7.58h-1.17v-0.47h3.49v0.47h-1.17v3.39h3.92v-3.39h-1.17v-0.47h3.49v0.47h-1.17v7.58h1.17v0.47
		h-3.49v-0.47h1.17v-3.7h-3.92v3.7h1.17v0.47h-3.49v-0.47H50.59z"/>
	<path class="st0" d="M60.96,38.12v0.47h-2.85v-0.47h1.11l3.05-8.13h0.46l2.86,8.13h1.16v0.47h-3.6v-0.47h1.22l-0.88-2.5h-2.77
		l-0.93,2.5H60.96z M62.14,31.83l-1.24,3.3h2.42l-1.16-3.3H62.14z"/>
	<path class="st0" d="M69.04,35.83c0,0.34,0.01,0.65,0.04,0.95s0.11,0.56,0.24,0.78s0.33,0.4,0.6,0.53s0.64,0.2,1.12,0.2
		c0.48,0,0.88-0.07,1.17-0.2s0.53-0.32,0.69-0.56s0.27-0.52,0.33-0.84s0.08-0.67,0.08-1.05v-5.1h-1.17v-0.47H75v0.47h-1.17v5.04
		c0,0.52-0.04,0.98-0.13,1.38s-0.24,0.73-0.46,1s-0.52,0.47-0.9,0.61s-0.86,0.21-1.45,0.21c-0.52,0-0.97-0.06-1.35-0.17
		s-0.69-0.29-0.93-0.53s-0.42-0.54-0.54-0.91s-0.17-0.81-0.17-1.32v-5.32h-1.17v-0.47h3.49v0.47h-1.17V35.83z"/>
	<path class="st0" d="M75.88,36.04h0.41c0.04,0.45,0.13,0.82,0.26,1.11s0.29,0.53,0.48,0.71s0.41,0.3,0.65,0.37s0.5,0.11,0.78,0.11
		c0.33,0,0.61-0.04,0.84-0.12s0.42-0.2,0.57-0.34s0.26-0.32,0.33-0.53s0.1-0.43,0.1-0.68c0-0.3-0.05-0.56-0.15-0.75
		s-0.24-0.37-0.42-0.5s-0.4-0.26-0.65-0.36s-0.53-0.21-0.84-0.32s-0.59-0.22-0.87-0.35s-0.52-0.27-0.73-0.45s-0.38-0.4-0.5-0.66
		s-0.18-0.58-0.18-0.97c0-0.36,0.06-0.7,0.18-1s0.29-0.56,0.52-0.77s0.52-0.38,0.86-0.5s0.74-0.18,1.19-0.18
		c0.18,0,0.37,0.01,0.56,0.03s0.38,0.04,0.57,0.08s0.38,0.08,0.56,0.13s0.36,0.1,0.52,0.16l0.07,2.13h-0.41
		c-0.04-0.42-0.11-0.77-0.23-1.03s-0.27-0.47-0.44-0.62s-0.37-0.25-0.58-0.31s-0.43-0.08-0.65-0.08c-0.3,0-0.55,0.04-0.77,0.11
		s-0.4,0.18-0.54,0.31s-0.25,0.3-0.33,0.49s-0.11,0.41-0.11,0.65c0,0.29,0.05,0.53,0.15,0.72s0.25,0.36,0.43,0.5
		s0.41,0.26,0.67,0.37s0.55,0.22,0.86,0.34c0.29,0.11,0.57,0.23,0.84,0.35s0.52,0.28,0.74,0.46s0.39,0.41,0.52,0.69
		s0.2,0.61,0.2,1.01c0,0.39-0.07,0.74-0.2,1.04s-0.33,0.56-0.58,0.77s-0.56,0.37-0.92,0.47s-0.77,0.16-1.23,0.16
		c-0.2,0-0.41-0.01-0.62-0.03s-0.42-0.05-0.63-0.09s-0.41-0.08-0.61-0.13s-0.38-0.11-0.56-0.18L75.88,36.04z"/>
	<path class="st0" d="M84.65,33.93h0.77c0.26,0,0.48-0.01,0.66-0.03s0.32-0.08,0.42-0.17s0.19-0.23,0.24-0.43s0.09-0.47,0.12-0.82
		h0.42v3.47h-0.42c-0.02-0.36-0.05-0.64-0.1-0.84s-0.12-0.36-0.23-0.47s-0.25-0.17-0.42-0.2s-0.41-0.04-0.69-0.04h-0.77v3.7h1.55
		c0.3,0,0.57-0.01,0.8-0.04s0.43-0.07,0.6-0.13s0.32-0.15,0.44-0.26s0.23-0.26,0.32-0.44s0.17-0.4,0.23-0.66s0.12-0.56,0.18-0.91
		h0.41l-0.12,2.91h-6.73v-0.47h1.17v-7.58h-1.17v-0.47h6.59l0.12,2.35h-0.41c-0.06-0.39-0.13-0.71-0.22-0.95s-0.21-0.44-0.36-0.57
		s-0.36-0.23-0.6-0.28s-0.56-0.07-0.94-0.07h-1.86V33.93z"/>
	<path class="st0" d="M97.57,38.67H97.1l-5.07-7.86L92,30.82v7.29h1.05v0.47H90.3v-0.47h1.17v-7.58H90.3v-0.47h2.62l4.09,6.34
		l0.03-0.01v-5.87h-1.17v-0.47h2.87v0.47h-1.17V38.67z"/>
</g>
</svg>
